<svg width="62" height="88" viewBox="0 0 62 88" fill="none" xmlns="http://www.w3.org/2000/svg">
<path d="M30.6058 88C24.8185 88 19.6248 86.6548 15.0246 83.9643C10.4245 81.1991 6.78891 77.4624 4.11787 72.7541C1.44682 68.0459 0.0741959 62.7397 0 56.8357V5.7172C0 3.9983 0.51937 2.61571 1.55811 1.56943C2.67105 0.523142 4.04367 0 5.67598 0C7.38248 0 8.7551 0.523142 9.79384 1.56943C10.8326 2.61571 11.352 3.9983 11.352 5.7172V35.9847C13.9488 32.8459 17.065 30.3796 20.7006 28.586C24.4104 26.7176 28.4541 25.7834 32.8316 25.7834C38.2479 25.7834 43.1077 27.166 47.4111 29.9312C51.7145 32.6217 55.0904 36.321 57.5388 41.0293C60.0615 45.6628 61.3228 50.9316 61.3228 56.8357C61.3228 62.7397 59.9502 68.0459 57.2049 72.7541C54.5339 77.4624 50.8983 81.1991 46.2982 83.9643C41.698 86.6548 36.4672 88 30.6058 88ZM30.6058 77.9108C34.3897 77.9108 37.7656 77.014 40.7335 75.2204C43.7013 73.352 46.0385 70.811 47.745 67.5975C49.5257 64.3839 50.416 60.7966 50.416 56.8357C50.416 52.8 49.5257 49.2127 47.745 46.0739C46.0385 42.935 43.7013 40.4688 40.7335 38.6752C37.7656 36.8068 34.3897 35.8726 30.6058 35.8726C26.896 35.8726 23.5201 36.8068 20.478 38.6752C17.5102 40.4688 15.173 42.935 13.4665 46.0739C11.76 49.2127 10.9068 52.8 10.9068 56.8357C10.9068 60.7966 11.76 64.3839 13.4665 67.5975C15.173 70.811 17.5102 73.352 20.478 75.2204C23.5201 77.014 26.896 77.9108 30.6058 77.9108Z" fill="#0009E1"/>
</svg>
