<svg width="361" height="259" viewBox="0 0 361 259" fill="none" xmlns="http://www.w3.org/2000/svg">
<rect width="361" height="259" rx="20" fill="white"/>
<path d="M70.4429 40.5854V42.1406C70.4429 42.8177 70.3794 43.408 70.2524 43.9116C70.1255 44.411 69.9393 44.8257 69.6938 45.1558C69.4526 45.4816 69.1564 45.7249 68.8052 45.8857C68.4582 46.0465 68.0604 46.127 67.6118 46.127C67.2563 46.127 66.9305 46.0762 66.6343 45.9746C66.3381 45.873 66.0736 45.7186 65.8408 45.5112C65.6123 45.2996 65.4176 45.0352 65.2568 44.7178C65.096 44.4004 64.9733 44.028 64.8887 43.6006C64.804 43.1689 64.7617 42.6823 64.7617 42.1406V40.5854C64.7617 39.9041 64.8252 39.3159 64.9521 38.8208C65.0833 38.3257 65.2695 37.9152 65.5107 37.5894C65.7562 37.2635 66.0545 37.0223 66.4058 36.8657C66.757 36.7049 67.1548 36.6245 67.5991 36.6245C67.9546 36.6245 68.2804 36.6774 68.5767 36.7832C68.8771 36.8848 69.1416 37.0371 69.3701 37.2402C69.6029 37.4434 69.7975 37.7036 69.9541 38.021C70.1149 38.3341 70.2355 38.7044 70.3159 39.1318C70.4006 39.5592 70.4429 40.0438 70.4429 40.5854ZM69.6875 42.2295V40.4902C69.6875 40.0713 69.6579 39.6904 69.5986 39.3477C69.5436 39.0049 69.4611 38.7044 69.3511 38.4463C69.241 38.1882 69.1014 37.9723 68.9321 37.7988C68.7671 37.6253 68.5724 37.4963 68.3481 37.4116C68.1281 37.3228 67.8784 37.2783 67.5991 37.2783C67.2563 37.2783 66.9538 37.3481 66.6914 37.4878C66.4333 37.6232 66.2174 37.8263 66.0439 38.0972C65.8704 38.3638 65.7393 38.6981 65.6504 39.1001C65.5658 39.5021 65.5234 39.9655 65.5234 40.4902V42.2295C65.5234 42.6442 65.5509 43.0229 65.606 43.3657C65.661 43.7043 65.7456 44.0047 65.8599 44.2671C65.9741 44.5295 66.1138 44.7516 66.2788 44.9336C66.4481 45.1113 66.6427 45.2467 66.8628 45.3398C67.0871 45.4287 67.3368 45.4731 67.6118 45.4731C67.9631 45.4731 68.2677 45.4033 68.5259 45.2637C68.784 45.1198 68.9998 44.9103 69.1733 44.6353C69.3468 44.356 69.4759 44.0153 69.5605 43.6133C69.6452 43.207 69.6875 42.7458 69.6875 42.2295Z" fill="#717171"/>
<path d="M103.153 41.4297L102.557 41.2583L103.007 36.7578H107.628V37.4688H103.655L103.331 40.5791C103.492 40.4648 103.725 40.3527 104.029 40.2427C104.338 40.1284 104.685 40.0713 105.07 40.0713C105.481 40.0713 105.853 40.1411 106.188 40.2808C106.526 40.4162 106.816 40.6151 107.057 40.8774C107.298 41.1356 107.485 41.4487 107.616 41.8169C107.747 42.1808 107.812 42.5934 107.812 43.0547C107.812 43.499 107.757 43.9074 107.647 44.2798C107.537 44.6522 107.37 44.978 107.146 45.2573C106.922 45.5324 106.636 45.7461 106.289 45.8984C105.942 46.0508 105.529 46.127 105.051 46.127C104.683 46.127 104.336 46.0762 104.01 45.9746C103.689 45.8688 103.401 45.7101 103.147 45.4985C102.893 45.2869 102.686 45.0203 102.525 44.6987C102.368 44.3771 102.271 44.0005 102.233 43.5688H102.963C103.014 43.9836 103.126 44.3327 103.299 44.6162C103.473 44.8997 103.706 45.1134 103.998 45.2573C104.294 45.4012 104.645 45.4731 105.051 45.4731C105.381 45.4731 105.669 45.4202 105.915 45.3145C106.164 45.2087 106.372 45.0542 106.537 44.8511C106.706 44.6437 106.833 44.3919 106.917 44.0957C107.006 43.7952 107.051 43.4525 107.051 43.0674C107.051 42.7373 107.004 42.4347 106.911 42.1597C106.818 41.8804 106.681 41.637 106.499 41.4297C106.321 41.2181 106.101 41.0552 105.838 40.9409C105.576 40.8267 105.276 40.7695 104.937 40.7695C104.497 40.7695 104.146 40.8288 103.883 40.9473C103.625 41.0658 103.382 41.2266 103.153 41.4297Z" fill="#717171"/>
<path d="M142.739 36.7197V46H141.983V37.6782L139.47 38.6113V37.894L142.612 36.7197H142.739ZM151.987 40.5854V42.1406C151.987 42.8177 151.924 43.408 151.797 43.9116C151.67 44.411 151.484 44.8257 151.238 45.1558C150.997 45.4816 150.701 45.7249 150.35 45.8857C150.003 46.0465 149.605 46.127 149.156 46.127C148.801 46.127 148.475 46.0762 148.179 45.9746C147.882 45.873 147.618 45.7186 147.385 45.5112C147.157 45.2996 146.962 45.0352 146.801 44.7178C146.64 44.4004 146.518 44.028 146.433 43.6006C146.348 43.1689 146.306 42.6823 146.306 42.1406V40.5854C146.306 39.9041 146.37 39.3159 146.497 38.8208C146.628 38.3257 146.814 37.9152 147.055 37.5894C147.301 37.2635 147.599 37.0223 147.95 36.8657C148.301 36.7049 148.699 36.6245 149.144 36.6245C149.499 36.6245 149.825 36.6774 150.121 36.7832C150.422 36.8848 150.686 37.0371 150.915 37.2402C151.147 37.4434 151.342 37.7036 151.499 38.021C151.659 38.3341 151.78 38.7044 151.86 39.1318C151.945 39.5592 151.987 40.0438 151.987 40.5854ZM151.232 42.2295V40.4902C151.232 40.0713 151.202 39.6904 151.143 39.3477C151.088 39.0049 151.006 38.7044 150.896 38.4463C150.785 38.1882 150.646 37.9723 150.477 37.7988C150.312 37.6253 150.117 37.4963 149.893 37.4116C149.673 37.3228 149.423 37.2783 149.144 37.2783C148.801 37.2783 148.498 37.3481 148.236 37.4878C147.978 37.6232 147.762 37.8263 147.588 38.0972C147.415 38.3638 147.284 38.6981 147.195 39.1001C147.11 39.5021 147.068 39.9655 147.068 40.4902V42.2295C147.068 42.6442 147.095 43.0229 147.15 43.3657C147.205 43.7043 147.29 44.0047 147.404 44.2671C147.519 44.5295 147.658 44.7516 147.823 44.9336C147.993 45.1113 148.187 45.2467 148.407 45.3398C148.632 45.4287 148.881 45.4731 149.156 45.4731C149.507 45.4731 149.812 45.4033 150.07 45.2637C150.328 45.1198 150.544 44.9103 150.718 44.6353C150.891 44.356 151.02 44.0153 151.105 43.6133C151.19 43.207 151.232 42.7458 151.232 42.2295Z" fill="#717171"/>
<path d="M186.905 36.7197V46H186.15V37.6782L183.636 38.6113V37.894L186.778 36.7197H186.905ZM191.698 41.4297L191.101 41.2583L191.552 36.7578H196.173V37.4688H192.199L191.875 40.5791C192.036 40.4648 192.269 40.3527 192.574 40.2427C192.883 40.1284 193.23 40.0713 193.615 40.0713C194.025 40.0713 194.398 40.1411 194.732 40.2808C195.07 40.4162 195.36 40.6151 195.602 40.8774C195.843 41.1356 196.029 41.4487 196.16 41.8169C196.291 42.1808 196.357 42.5934 196.357 43.0547C196.357 43.499 196.302 43.9074 196.192 44.2798C196.082 44.6522 195.915 44.978 195.69 45.2573C195.466 45.5324 195.181 45.7461 194.833 45.8984C194.486 46.0508 194.074 46.127 193.596 46.127C193.228 46.127 192.881 46.0762 192.555 45.9746C192.233 45.8688 191.945 45.7101 191.691 45.4985C191.438 45.2869 191.23 45.0203 191.069 44.6987C190.913 44.3771 190.815 44.0005 190.777 43.5688H191.507C191.558 43.9836 191.67 44.3327 191.844 44.6162C192.017 44.8997 192.25 45.1134 192.542 45.2573C192.838 45.4012 193.189 45.4731 193.596 45.4731C193.926 45.4731 194.214 45.4202 194.459 45.3145C194.709 45.2087 194.916 45.0542 195.081 44.8511C195.25 44.6437 195.377 44.3919 195.462 44.0957C195.551 43.7952 195.595 43.4525 195.595 43.0674C195.595 42.7373 195.549 42.4347 195.456 42.1597C195.362 41.8804 195.225 41.637 195.043 41.4297C194.865 41.2181 194.645 41.0552 194.383 40.9409C194.12 40.8267 193.82 40.7695 193.481 40.7695C193.041 40.7695 192.69 40.8288 192.428 40.9473C192.17 41.0658 191.926 41.2266 191.698 41.4297Z" fill="#717171"/>
<path d="M233.325 45.3462V46H227.542V45.4097L230.57 41.9756C230.947 41.5482 231.247 41.1737 231.472 40.8521C231.696 40.5262 231.857 40.23 231.954 39.9634C232.056 39.6925 232.106 39.4302 232.106 39.1763C232.106 38.8039 232.032 38.4759 231.884 38.1924C231.74 37.9089 231.525 37.6867 231.237 37.5259C230.949 37.3651 230.594 37.2847 230.17 37.2847C229.747 37.2847 229.379 37.3757 229.066 37.5576C228.753 37.7396 228.512 37.9935 228.342 38.3193C228.177 38.641 228.095 39.007 228.095 39.4175H227.339C227.339 38.9097 227.451 38.4442 227.676 38.021C227.904 37.5978 228.23 37.2614 228.653 37.0117C229.076 36.7578 229.582 36.6309 230.17 36.6309C230.729 36.6309 231.209 36.7303 231.611 36.9292C232.013 37.1239 232.322 37.4053 232.538 37.7734C232.758 38.1416 232.868 38.5859 232.868 39.1064C232.868 39.3857 232.817 39.6672 232.716 39.9507C232.618 40.2342 232.483 40.5177 232.31 40.8013C232.14 41.0806 231.946 41.3577 231.726 41.6328C231.51 41.9079 231.283 42.1787 231.046 42.4453L228.469 45.3462H233.325ZM240.32 40.5854V42.1406C240.32 42.8177 240.257 43.408 240.13 43.9116C240.003 44.411 239.817 44.8257 239.571 45.1558C239.33 45.4816 239.034 45.7249 238.683 45.8857C238.336 46.0465 237.938 46.127 237.489 46.127C237.134 46.127 236.808 46.0762 236.512 45.9746C236.215 45.873 235.951 45.7186 235.718 45.5112C235.49 45.2996 235.295 45.0352 235.134 44.7178C234.973 44.4004 234.851 44.028 234.766 43.6006C234.681 43.1689 234.639 42.6823 234.639 42.1406V40.5854C234.639 39.9041 234.703 39.3159 234.83 38.8208C234.961 38.3257 235.147 37.9152 235.388 37.5894C235.634 37.2635 235.932 37.0223 236.283 36.8657C236.634 36.7049 237.032 36.6245 237.477 36.6245C237.832 36.6245 238.158 36.6774 238.454 36.7832C238.755 36.8848 239.019 37.0371 239.248 37.2402C239.48 37.4434 239.675 37.7036 239.832 38.021C239.992 38.3341 240.113 38.7044 240.193 39.1318C240.278 39.5592 240.32 40.0438 240.32 40.5854ZM239.565 42.2295V40.4902C239.565 40.0713 239.535 39.6904 239.476 39.3477C239.421 39.0049 239.339 38.7044 239.229 38.4463C239.118 38.1882 238.979 37.9723 238.81 37.7988C238.645 37.6253 238.45 37.4963 238.226 37.4116C238.006 37.3228 237.756 37.2783 237.477 37.2783C237.134 37.2783 236.831 37.3481 236.569 37.4878C236.311 37.6232 236.095 37.8263 235.921 38.0972C235.748 38.3638 235.617 38.6981 235.528 39.1001C235.443 39.5021 235.401 39.9655 235.401 40.4902V42.2295C235.401 42.6442 235.428 43.0229 235.483 43.3657C235.538 43.7043 235.623 44.0047 235.737 44.2671C235.852 44.5295 235.991 44.7516 236.156 44.9336C236.326 45.1113 236.52 45.2467 236.74 45.3398C236.965 45.4287 237.214 45.4731 237.489 45.4731C237.84 45.4731 238.145 45.4033 238.403 45.2637C238.661 45.1198 238.877 44.9103 239.051 44.6353C239.224 44.356 239.353 44.0153 239.438 43.6133C239.523 43.207 239.565 42.7458 239.565 42.2295Z" fill="#717171"/>
<path d="M277.492 45.3462V46H271.709V45.4097L274.737 41.9756C275.114 41.5482 275.414 41.1737 275.639 40.8521C275.863 40.5262 276.024 40.23 276.121 39.9634C276.223 39.6925 276.273 39.4302 276.273 39.1763C276.273 38.8039 276.199 38.4759 276.051 38.1924C275.907 37.9089 275.692 37.6867 275.404 37.5259C275.116 37.3651 274.761 37.2847 274.337 37.2847C273.914 37.2847 273.546 37.3757 273.233 37.5576C272.92 37.7396 272.679 37.9935 272.509 38.3193C272.344 38.641 272.262 39.007 272.262 39.4175H271.506C271.506 38.9097 271.618 38.4442 271.843 38.021C272.071 37.5978 272.397 37.2614 272.82 37.0117C273.243 36.7578 273.749 36.6309 274.337 36.6309C274.896 36.6309 275.376 36.7303 275.778 36.9292C276.18 37.1239 276.489 37.4053 276.705 37.7734C276.925 38.1416 277.035 38.5859 277.035 39.1064C277.035 39.3857 276.984 39.6672 276.883 39.9507C276.785 40.2342 276.65 40.5177 276.477 40.8013C276.307 41.0806 276.113 41.3577 275.893 41.6328C275.677 41.9079 275.45 42.1787 275.213 42.4453L272.636 45.3462H277.492ZM280.031 41.4297L279.435 41.2583L279.885 36.7578H284.506V37.4688H280.533L280.209 40.5791C280.37 40.4648 280.603 40.3527 280.907 40.2427C281.216 40.1284 281.563 40.0713 281.948 40.0713C282.359 40.0713 282.731 40.1411 283.065 40.2808C283.404 40.4162 283.694 40.6151 283.935 40.8774C284.176 41.1356 284.362 41.4487 284.494 41.8169C284.625 42.1808 284.69 42.5934 284.69 43.0547C284.69 43.499 284.635 43.9074 284.525 44.2798C284.415 44.6522 284.248 44.978 284.024 45.2573C283.8 45.5324 283.514 45.7461 283.167 45.8984C282.82 46.0508 282.407 46.127 281.929 46.127C281.561 46.127 281.214 46.0762 280.888 45.9746C280.567 45.8688 280.279 45.7101 280.025 45.4985C279.771 45.2869 279.564 45.0203 279.403 44.6987C279.246 44.3771 279.149 44.0005 279.111 43.5688H279.841C279.892 43.9836 280.004 44.3327 280.177 44.6162C280.351 44.8997 280.583 45.1134 280.875 45.2573C281.172 45.4012 281.523 45.4731 281.929 45.4731C282.259 45.4731 282.547 45.4202 282.792 45.3145C283.042 45.2087 283.25 45.0542 283.415 44.8511C283.584 44.6437 283.711 44.3919 283.795 44.0957C283.884 43.7952 283.929 43.4525 283.929 43.0674C283.929 42.7373 283.882 42.4347 283.789 42.1597C283.696 41.8804 283.558 41.637 283.376 41.4297C283.199 41.2181 282.979 41.0552 282.716 40.9409C282.454 40.8267 282.153 40.7695 281.815 40.7695C281.375 40.7695 281.024 40.8288 280.761 40.9473C280.503 41.0658 280.26 41.2266 280.031 41.4297Z" fill="#717171"/>
<path d="M317.564 40.96H318.339C318.813 40.96 319.208 40.8796 319.526 40.7188C319.847 40.5537 320.089 40.3358 320.25 40.0649C320.415 39.7941 320.497 39.4937 320.497 39.1636C320.497 38.7912 320.427 38.4653 320.288 38.186C320.148 37.9025 319.934 37.6825 319.646 37.5259C319.363 37.3651 318.999 37.2847 318.555 37.2847C318.165 37.2847 317.818 37.3608 317.514 37.5132C317.209 37.6655 316.968 37.8835 316.79 38.167C316.612 38.4505 316.523 38.7891 316.523 39.1826H315.768C315.768 38.679 315.889 38.2368 316.13 37.856C316.371 37.4709 316.703 37.1704 317.126 36.9546C317.55 36.7388 318.026 36.6309 318.555 36.6309C319.101 36.6309 319.575 36.7303 319.977 36.9292C320.383 37.1281 320.696 37.418 320.916 37.7988C321.14 38.1797 321.252 38.6431 321.252 39.189C321.252 39.4683 321.191 39.7433 321.068 40.0142C320.95 40.285 320.772 40.5304 320.535 40.7505C320.298 40.9663 320.004 41.1398 319.653 41.271C319.302 41.4022 318.893 41.4678 318.428 41.4678H317.564V40.96ZM317.564 41.6138V41.1123H318.428C318.957 41.1123 319.41 41.1737 319.786 41.2964C320.163 41.4149 320.472 41.5841 320.713 41.8042C320.958 42.02 321.138 42.2718 321.252 42.5596C321.367 42.8473 321.424 43.1562 321.424 43.4863C321.424 43.9095 321.354 44.284 321.214 44.6099C321.075 44.9357 320.876 45.2129 320.618 45.4414C320.364 45.6657 320.063 45.8371 319.716 45.9556C319.374 46.0698 318.997 46.127 318.586 46.127C318.214 46.127 317.85 46.0719 317.495 45.9619C317.143 45.8519 316.826 45.689 316.542 45.4731C316.263 45.2531 316.041 44.978 315.876 44.6479C315.711 44.3136 315.628 43.9285 315.628 43.4927H316.384C316.384 43.882 316.477 44.2269 316.663 44.5273C316.849 44.8236 317.107 45.0563 317.438 45.2256C317.772 45.3906 318.155 45.4731 318.586 45.4731C319.022 45.4731 319.395 45.3991 319.704 45.251C320.017 45.0986 320.256 44.8765 320.421 44.5845C320.586 44.2925 320.668 43.9349 320.668 43.5117C320.668 43.0674 320.569 42.7056 320.37 42.4263C320.175 42.147 319.903 41.9417 319.551 41.8105C319.204 41.6794 318.8 41.6138 318.339 41.6138H317.564ZM328.654 40.5854V42.1406C328.654 42.8177 328.59 43.408 328.463 43.9116C328.336 44.411 328.15 44.8257 327.905 45.1558C327.664 45.4816 327.367 45.7249 327.016 45.8857C326.669 46.0465 326.271 46.127 325.823 46.127C325.467 46.127 325.141 46.0762 324.845 45.9746C324.549 45.873 324.285 45.7186 324.052 45.5112C323.823 45.2996 323.629 45.0352 323.468 44.7178C323.307 44.4004 323.184 44.028 323.1 43.6006C323.015 43.1689 322.973 42.6823 322.973 42.1406V40.5854C322.973 39.9041 323.036 39.3159 323.163 38.8208C323.294 38.3257 323.48 37.9152 323.722 37.5894C323.967 37.2635 324.265 37.0223 324.617 36.8657C324.968 36.7049 325.366 36.6245 325.81 36.6245C326.166 36.6245 326.491 36.6774 326.788 36.7832C327.088 36.8848 327.353 37.0371 327.581 37.2402C327.814 37.4434 328.008 37.7036 328.165 38.021C328.326 38.3341 328.446 38.7044 328.527 39.1318C328.611 39.5592 328.654 40.0438 328.654 40.5854ZM327.898 42.2295V40.4902C327.898 40.0713 327.869 39.6904 327.81 39.3477C327.755 39.0049 327.672 38.7044 327.562 38.4463C327.452 38.1882 327.312 37.9723 327.143 37.7988C326.978 37.6253 326.783 37.4963 326.559 37.4116C326.339 37.3228 326.089 37.2783 325.81 37.2783C325.467 37.2783 325.165 37.3481 324.902 37.4878C324.644 37.6232 324.428 37.8263 324.255 38.0972C324.081 38.3638 323.95 38.6981 323.861 39.1001C323.777 39.5021 323.734 39.9655 323.734 40.4902V42.2295C323.734 42.6442 323.762 43.0229 323.817 43.3657C323.872 43.7043 323.957 44.0047 324.071 44.2671C324.185 44.5295 324.325 44.7516 324.49 44.9336C324.659 45.1113 324.854 45.2467 325.074 45.3398C325.298 45.4287 325.548 45.4731 325.823 45.4731C326.174 45.4731 326.479 45.4033 326.737 45.2637C326.995 45.1198 327.211 44.9103 327.384 44.6353C327.558 44.356 327.687 44.0153 327.771 43.6133C327.856 43.207 327.898 42.7458 327.898 42.2295Z" fill="#717171"/>
<path d="M66 208.464C66 208.464 130.674 214.17 184.459 208.464C226.843 203.967 239.341 200.099 274.661 185.979C298.671 176.381 329 156 329 156" stroke="#E10606" stroke-width="8" stroke-linecap="square"/>
<path d="M64 206C64 206 101.521 184.567 154.379 177.221C190.084 172.26 265.145 181.5 292.737 167.794C316.761 155.86 329 141 329 141" stroke="#03AB32" stroke-width="8" stroke-linecap="square"/>
<path d="M37.3745 61.7578V62.6719L33.7437 71H31.9727L35.6035 63.0781H30.9062V61.7578H37.3745ZM44.7124 65.5854V67.1406C44.7124 67.8516 44.6405 68.4588 44.4966 68.9624C44.3527 69.466 44.1453 69.8786 43.8745 70.2002C43.6037 70.5176 43.2799 70.7524 42.9033 70.9048C42.5267 71.0529 42.1077 71.127 41.6465 71.127C41.2783 71.127 40.9355 71.0804 40.6182 70.9873C40.3008 70.89 40.0151 70.7419 39.7612 70.543C39.5116 70.3398 39.2957 70.0817 39.1138 69.7686C38.936 69.4554 38.7985 69.0809 38.7012 68.645C38.6081 68.2091 38.5615 67.7077 38.5615 67.1406V65.5854C38.5615 64.8745 38.6335 64.2694 38.7773 63.77C38.9255 63.2707 39.1349 62.8623 39.4058 62.5449C39.6766 62.2275 40.0003 61.9969 40.377 61.853C40.7536 61.7049 41.1725 61.6309 41.6338 61.6309C42.0062 61.6309 42.349 61.6774 42.6621 61.7705C42.9795 61.8636 43.263 62.0096 43.5127 62.2085C43.7666 62.4032 43.9824 62.6571 44.1602 62.9702C44.3379 63.2791 44.4733 63.6515 44.5664 64.0874C44.6637 64.519 44.7124 65.0184 44.7124 65.5854ZM43.0366 67.3691V65.3506C43.0366 64.9951 43.0155 64.6862 42.9731 64.4238C42.9351 64.1572 42.8779 63.9308 42.8018 63.7446C42.7256 63.5584 42.6304 63.4082 42.5161 63.2939C42.4019 63.1755 42.2707 63.0887 42.1226 63.0337C41.9744 62.9787 41.8115 62.9512 41.6338 62.9512C41.4137 62.9512 41.217 62.9956 41.0435 63.0845C40.87 63.1691 40.724 63.3045 40.6055 63.4907C40.487 63.6769 40.396 63.9245 40.3325 64.2334C40.2733 64.5381 40.2437 64.9105 40.2437 65.3506V67.3691C40.2437 67.7246 40.2627 68.0356 40.3008 68.3022C40.3431 68.5688 40.4023 68.7974 40.4785 68.9878C40.5589 69.1782 40.6541 69.3348 40.7642 69.4575C40.8784 69.576 41.0096 69.6649 41.1577 69.7241C41.3058 69.7791 41.4688 69.8066 41.6465 69.8066C41.8708 69.8066 42.0675 69.7622 42.2368 69.6733C42.4103 69.5845 42.5563 69.4448 42.6748 69.2544C42.7933 69.0597 42.8822 68.8079 42.9414 68.499C43.0049 68.1859 43.0366 67.8092 43.0366 67.3691Z" fill="#717171"/>
<path d="M32.8296 102.747L31.4902 102.423L32.0044 97.7578H37.0889V99.1479H33.3945L33.1533 101.306C33.2845 101.226 33.4749 101.145 33.7246 101.065C33.9785 100.98 34.2642 100.938 34.5815 100.938C35.0216 100.938 35.4152 101.01 35.7622 101.154C36.1092 101.293 36.4033 101.497 36.6445 101.763C36.89 102.03 37.0741 102.356 37.1968 102.741C37.3237 103.122 37.3872 103.553 37.3872 104.036C37.3872 104.459 37.3237 104.857 37.1968 105.229C37.0741 105.597 36.8857 105.925 36.6318 106.213C36.3779 106.496 36.0584 106.721 35.6733 106.886C35.2882 107.047 34.8354 107.127 34.3149 107.127C33.9214 107.127 33.5426 107.07 33.1787 106.956C32.819 106.837 32.4953 106.666 32.2075 106.441C31.9198 106.213 31.6891 105.934 31.5156 105.604C31.3464 105.273 31.2533 104.895 31.2363 104.467H32.8931C32.9227 104.751 32.9989 104.992 33.1216 105.191C33.2443 105.39 33.4051 105.542 33.604 105.648C33.8071 105.754 34.042 105.807 34.3086 105.807C34.5498 105.807 34.7572 105.762 34.9307 105.673C35.1084 105.58 35.2544 105.451 35.3687 105.286C35.4829 105.121 35.5675 104.926 35.6226 104.702C35.6776 104.478 35.7051 104.232 35.7051 103.966C35.7051 103.708 35.6733 103.473 35.6099 103.261C35.5464 103.045 35.4491 102.859 35.3179 102.703C35.1867 102.546 35.0216 102.425 34.8228 102.341C34.6281 102.256 34.3996 102.214 34.1372 102.214C33.786 102.214 33.5151 102.267 33.3247 102.373C33.1385 102.478 32.9735 102.603 32.8296 102.747ZM40.4277 101.636H41.3735C41.7078 101.636 41.9829 101.579 42.1987 101.465C42.4188 101.346 42.5817 101.186 42.6875 100.982C42.7975 100.775 42.8525 100.536 42.8525 100.265C42.8525 99.9985 42.8039 99.7679 42.7065 99.5732C42.6092 99.3743 42.4611 99.222 42.2622 99.1162C42.0675 99.0062 41.8179 98.9512 41.5132 98.9512C41.2677 98.9512 41.0413 98.9998 40.834 99.0972C40.6309 99.1945 40.4679 99.3341 40.3452 99.5161C40.2267 99.6938 40.1675 99.9076 40.1675 100.157H38.4854C38.4854 99.6579 38.6165 99.2199 38.8789 98.8433C39.1455 98.4624 39.5052 98.1641 39.958 97.9482C40.4108 97.7324 40.9165 97.6245 41.4751 97.6245C42.0845 97.6245 42.6177 97.7261 43.0747 97.9292C43.536 98.1281 43.8936 98.4222 44.1475 98.8115C44.4056 99.2008 44.5347 99.6833 44.5347 100.259C44.5347 100.534 44.4691 100.809 44.3379 101.084C44.2109 101.355 44.0226 101.6 43.7729 101.82C43.5275 102.036 43.2249 102.212 42.8652 102.347C42.5098 102.478 42.1014 102.544 41.6401 102.544H40.4277V101.636ZM40.4277 102.931V102.036H41.6401C42.1606 102.036 42.6113 102.097 42.9922 102.22C43.3773 102.339 43.6947 102.508 43.9443 102.728C44.194 102.944 44.3781 103.196 44.4966 103.483C44.6193 103.771 44.6807 104.08 44.6807 104.41C44.6807 104.842 44.6003 105.227 44.4395 105.565C44.2786 105.9 44.0522 106.183 43.7603 106.416C43.4725 106.649 43.134 106.826 42.7446 106.949C42.3553 107.068 41.9342 107.127 41.4814 107.127C41.0879 107.127 40.7049 107.074 40.3325 106.968C39.9644 106.858 39.6322 106.695 39.3359 106.479C39.0397 106.259 38.8049 105.984 38.6313 105.654C38.4578 105.32 38.3711 104.933 38.3711 104.493H40.0532C40.0532 104.747 40.1146 104.973 40.2373 105.172C40.3643 105.371 40.5378 105.527 40.7578 105.642C40.9821 105.752 41.2339 105.807 41.5132 105.807C41.8221 105.807 42.0866 105.752 42.3066 105.642C42.5309 105.527 42.7023 105.367 42.8208 105.159C42.9393 104.948 42.9985 104.696 42.9985 104.404C42.9985 104.057 42.9329 103.775 42.8018 103.56C42.6706 103.344 42.4823 103.185 42.2368 103.083C41.9956 102.982 41.7078 102.931 41.3735 102.931H40.4277Z" fill="#717171"/>
<path d="M33.001 137.636H33.9468C34.2811 137.636 34.5562 137.579 34.772 137.465C34.992 137.346 35.1549 137.186 35.2607 136.982C35.3708 136.775 35.4258 136.536 35.4258 136.265C35.4258 135.999 35.3771 135.768 35.2798 135.573C35.1825 135.374 35.0343 135.222 34.8354 135.116C34.6408 135.006 34.3911 134.951 34.0864 134.951C33.841 134.951 33.6146 135 33.4072 135.097C33.2041 135.194 33.0412 135.334 32.9185 135.516C32.8 135.694 32.7407 135.908 32.7407 136.157H31.0586C31.0586 135.658 31.1898 135.22 31.4521 134.843C31.7188 134.462 32.0785 134.164 32.5312 133.948C32.984 133.732 33.4897 133.625 34.0483 133.625C34.6577 133.625 35.1909 133.726 35.6479 133.929C36.1092 134.128 36.4668 134.422 36.7207 134.812C36.9788 135.201 37.1079 135.683 37.1079 136.259C37.1079 136.534 37.0423 136.809 36.9111 137.084C36.7842 137.355 36.5959 137.6 36.3462 137.82C36.1007 138.036 35.7982 138.212 35.4385 138.347C35.083 138.478 34.6746 138.544 34.2134 138.544H33.001V137.636ZM33.001 138.931V138.036H34.2134C34.7339 138.036 35.1846 138.097 35.5654 138.22C35.9505 138.339 36.2679 138.508 36.5176 138.728C36.7673 138.944 36.9513 139.196 37.0698 139.483C37.1925 139.771 37.2539 140.08 37.2539 140.41C37.2539 140.842 37.1735 141.227 37.0127 141.565C36.8519 141.9 36.6255 142.183 36.3335 142.416C36.0457 142.649 35.7072 142.826 35.3179 142.949C34.9285 143.068 34.5075 143.127 34.0547 143.127C33.6611 143.127 33.2782 143.074 32.9058 142.968C32.5376 142.858 32.2054 142.695 31.9092 142.479C31.613 142.259 31.3781 141.984 31.2046 141.654C31.0311 141.32 30.9443 140.933 30.9443 140.493H32.6265C32.6265 140.747 32.6878 140.973 32.8105 141.172C32.9375 141.371 33.111 141.527 33.3311 141.642C33.5553 141.752 33.8071 141.807 34.0864 141.807C34.3953 141.807 34.6598 141.752 34.8799 141.642C35.1042 141.527 35.2756 141.367 35.394 141.159C35.5125 140.948 35.5718 140.696 35.5718 140.404C35.5718 140.057 35.5062 139.775 35.375 139.56C35.2438 139.344 35.0555 139.185 34.8101 139.083C34.5688 138.982 34.2811 138.931 33.9468 138.931H33.001ZM40.2563 138.747L38.917 138.423L39.4312 133.758H44.5156V135.148H40.8213L40.5801 137.306C40.7113 137.226 40.9017 137.145 41.1514 137.065C41.4053 136.98 41.6909 136.938 42.0083 136.938C42.4484 136.938 42.842 137.01 43.189 137.154C43.536 137.293 43.8301 137.497 44.0713 137.763C44.3167 138.03 44.5008 138.356 44.6235 138.741C44.7505 139.122 44.814 139.553 44.814 140.036C44.814 140.459 44.7505 140.857 44.6235 141.229C44.5008 141.597 44.3125 141.925 44.0586 142.213C43.8047 142.496 43.4852 142.721 43.1001 142.886C42.715 143.047 42.2622 143.127 41.7417 143.127C41.3481 143.127 40.9694 143.07 40.6055 142.956C40.2458 142.837 39.922 142.666 39.6343 142.441C39.3465 142.213 39.1159 141.934 38.9424 141.604C38.7731 141.273 38.68 140.895 38.6631 140.467H40.3198C40.3494 140.751 40.4256 140.992 40.5483 141.191C40.6711 141.39 40.8319 141.542 41.0308 141.648C41.2339 141.754 41.4688 141.807 41.7354 141.807C41.9766 141.807 42.1839 141.762 42.3574 141.673C42.5352 141.58 42.6812 141.451 42.7954 141.286C42.9097 141.121 42.9943 140.926 43.0493 140.702C43.1043 140.478 43.1318 140.232 43.1318 139.966C43.1318 139.708 43.1001 139.473 43.0366 139.261C42.9731 139.045 42.8758 138.859 42.7446 138.703C42.6134 138.546 42.4484 138.425 42.2495 138.341C42.0549 138.256 41.8263 138.214 41.564 138.214C41.2127 138.214 40.9419 138.267 40.7515 138.373C40.5653 138.478 40.4002 138.603 40.2563 138.747Z" fill="#717171"/>
<path d="M35.4829 169.732V179H33.8008V171.694L31.5728 172.43V171.072L35.2925 169.732H35.4829ZM44.7251 176.474C44.7251 177.049 44.5897 177.536 44.3188 177.934C44.0522 178.327 43.6862 178.625 43.2207 178.829C42.7594 179.028 42.2347 179.127 41.6465 179.127C41.0625 179.127 40.5356 179.028 40.0659 178.829C39.6004 178.625 39.2301 178.327 38.9551 177.934C38.6842 177.536 38.5488 177.049 38.5488 176.474C38.5488 176.089 38.625 175.739 38.7773 175.426C38.9339 175.113 39.1497 174.844 39.4248 174.62C39.6999 174.392 40.0257 174.218 40.4023 174.1C40.779 173.977 41.1895 173.916 41.6338 173.916C42.2262 173.916 42.7552 174.023 43.2207 174.239C43.6904 174.451 44.0586 174.749 44.3252 175.134C44.5918 175.515 44.7251 175.962 44.7251 176.474ZM43.0366 176.372C43.0366 176.076 42.9774 175.82 42.8589 175.604C42.7446 175.384 42.5817 175.215 42.3701 175.096C42.1585 174.978 41.9131 174.918 41.6338 174.918C41.3503 174.918 41.1027 174.978 40.8911 175.096C40.6838 175.215 40.5208 175.384 40.4023 175.604C40.2881 175.82 40.231 176.076 40.231 176.372C40.231 176.673 40.2881 176.931 40.4023 177.146C40.5208 177.358 40.6859 177.521 40.8975 177.635C41.109 177.75 41.3587 177.807 41.6465 177.807C41.9342 177.807 42.1818 177.75 42.3892 177.635C42.5965 177.521 42.7552 177.358 42.8652 177.146C42.9795 176.931 43.0366 176.673 43.0366 176.372ZM44.522 172.195C44.522 172.661 44.3993 173.076 44.1538 173.439C43.9084 173.799 43.5677 174.081 43.1318 174.284C42.7002 174.487 42.2051 174.588 41.6465 174.588C41.0879 174.588 40.5885 174.487 40.1484 174.284C39.7126 174.081 39.3698 173.799 39.1201 173.439C38.8747 173.076 38.752 172.661 38.752 172.195C38.752 171.645 38.8768 171.18 39.1265 170.799C39.3761 170.414 39.7168 170.122 40.1484 169.923C40.5843 169.724 41.0794 169.625 41.6338 169.625C42.1966 169.625 42.696 169.724 43.1318 169.923C43.5677 170.122 43.9084 170.414 44.1538 170.799C44.3993 171.18 44.522 171.645 44.522 172.195ZM42.8462 172.265C42.8462 172.003 42.7975 171.774 42.7002 171.58C42.6029 171.381 42.4632 171.226 42.2812 171.116C42.1035 171.006 41.8877 170.951 41.6338 170.951C41.3883 170.951 41.1768 171.004 40.999 171.11C40.8213 171.216 40.6838 171.368 40.5864 171.567C40.4891 171.762 40.4404 171.994 40.4404 172.265C40.4404 172.532 40.4891 172.764 40.5864 172.963C40.6838 173.162 40.8213 173.319 40.999 173.433C41.181 173.543 41.3968 173.598 41.6465 173.598C41.8962 173.598 42.1099 173.543 42.2876 173.433C42.4653 173.319 42.6029 173.162 42.7002 172.963C42.7975 172.764 42.8462 172.532 42.8462 172.265Z" fill="#717171"/>
<path d="M40.7856 209.585V211.141C40.7856 211.852 40.7137 212.459 40.5698 212.962C40.4259 213.466 40.2186 213.879 39.9478 214.2C39.6769 214.518 39.3532 214.752 38.9766 214.905C38.5999 215.053 38.181 215.127 37.7197 215.127C37.3516 215.127 37.0088 215.08 36.6914 214.987C36.374 214.89 36.0884 214.742 35.8345 214.543C35.5848 214.34 35.369 214.082 35.187 213.769C35.0093 213.455 34.8717 213.081 34.7744 212.645C34.6813 212.209 34.6348 211.708 34.6348 211.141V209.585C34.6348 208.875 34.7067 208.269 34.8506 207.77C34.9987 207.271 35.2082 206.862 35.479 206.545C35.7498 206.228 36.0736 205.997 36.4502 205.853C36.8268 205.705 37.2458 205.631 37.707 205.631C38.0794 205.631 38.4222 205.677 38.7354 205.771C39.0527 205.864 39.3363 206.01 39.5859 206.208C39.8398 206.403 40.0557 206.657 40.2334 206.97C40.4111 207.279 40.5465 207.652 40.6396 208.087C40.737 208.519 40.7856 209.018 40.7856 209.585ZM39.1099 211.369V209.351C39.1099 208.995 39.0887 208.686 39.0464 208.424C39.0083 208.157 38.9512 207.931 38.875 207.745C38.7988 207.558 38.7036 207.408 38.5894 207.294C38.4751 207.175 38.3439 207.089 38.1958 207.034C38.0477 206.979 37.8848 206.951 37.707 206.951C37.487 206.951 37.2902 206.996 37.1167 207.084C36.9432 207.169 36.7972 207.305 36.6787 207.491C36.5602 207.677 36.4692 207.924 36.4058 208.233C36.3465 208.538 36.3169 208.91 36.3169 209.351V211.369C36.3169 211.725 36.3359 212.036 36.374 212.302C36.4163 212.569 36.4756 212.797 36.5518 212.988C36.6322 213.178 36.7274 213.335 36.8374 213.458C36.9517 213.576 37.0828 213.665 37.231 213.724C37.3791 213.779 37.542 213.807 37.7197 213.807C37.944 213.807 38.1408 213.762 38.3101 213.673C38.4836 213.584 38.6296 213.445 38.748 213.254C38.8665 213.06 38.9554 212.808 39.0146 212.499C39.0781 212.186 39.1099 211.809 39.1099 211.369Z" fill="#717171"/>
</svg>
