<svg width="25" height="33" viewBox="0 0 25 33" fill="none" xmlns="http://www.w3.org/2000/svg">
<path d="M12.4767 33C10.1625 33 8.1196 32.4894 6.34818 31.4682C4.57675 30.4178 3.17675 28.9881 2.14819 27.179C1.14819 25.3409 0.648188 23.2401 0.648188 20.8767C0.648188 18.4841 1.14819 16.3833 2.14819 14.5743C3.17675 12.7361 4.57675 11.3064 6.34818 10.2852C8.1196 9.23476 10.1625 8.70957 12.4767 8.70957C14.7624 8.70957 16.791 9.23476 18.5624 10.2852C20.3339 11.3064 21.7196 12.7361 22.7196 14.5743C23.7481 16.3833 24.2624 18.4841 24.2624 20.8767C24.2624 23.2401 23.7624 25.3409 22.7624 27.179C21.7624 28.9881 20.3767 30.4178 18.6053 31.4682C16.8339 32.4894 14.791 33 12.4767 33ZM12.4767 29.061C13.9624 29.061 15.2767 28.7109 16.4196 28.0106C17.5624 27.3103 18.4482 26.3475 19.0767 25.122C19.7339 23.8966 20.0624 22.4814 20.0624 20.8767C20.0624 19.2719 19.7339 17.8568 19.0767 16.6313C18.4482 15.3767 17.5624 14.3992 16.4196 13.699C15.2767 12.9987 13.9624 12.6486 12.4767 12.6486C10.991 12.6486 9.67674 12.9987 8.53389 13.699C7.39103 14.3992 6.49104 15.3767 5.83389 16.6313C5.17675 17.8568 4.84818 19.2719 4.84818 20.8767C4.84818 22.4814 5.17675 23.8966 5.83389 25.122C6.49104 26.3475 7.39103 27.3103 8.53389 28.0106C9.67674 28.7109 10.991 29.061 12.4767 29.061Z" fill="#0009E1"/>
<path d="M0.527277 0.427408C0.175759 0.712346 0 1.06377 0 1.48168L8.8138e-06 3.64723C1.81802e-05 5.66152 1.59899 7.29442 3.57143 7.29442H10.7143V3.64721H5.77632C4.60518 3.64721 3.65579 2.67767 3.65579 1.48168C3.65579 1.06377 3.49174 0.712346 3.16366 0.427408C2.81214 0.142469 2.36689 0 1.82789 0C1.31233 0 0.878795 0.142469 0.527277 0.427408Z" fill="#0009E1"/>
<path d="M24.4727 0.427408C24.8242 0.712346 25 1.06377 25 1.48168L25 3.64723C25 5.66152 23.401 7.29442 21.4286 7.29442H14.2857V3.64721H19.2237C20.3948 3.64721 21.3442 2.67767 21.3442 1.48168C21.3442 1.06377 21.5083 0.712346 21.8363 0.427408C22.1879 0.142469 22.6331 0 23.1721 0C23.6877 0 24.1212 0.142469 24.4727 0.427408Z" fill="#0009E1"/>
</svg>
