<svg width="44" height="42" viewBox="0 0 44 42" fill="none" xmlns="http://www.w3.org/2000/svg">
<rect width="44" height="42" rx="5" fill="#B133FF"/>
<path d="M7.23457 21.6821C7.60428 18.3233 9.09509 15.3017 11.325 12.9992L13.8475 15.5215L15.0146 14.3544L12.538 11.878C14.9098 9.91727 17.9012 8.67877 21.1751 8.49961V12.6036H22.8257V8.49961C26.0996 8.67876 29.0911 9.9173 31.4628 11.878L29.0864 14.2542L30.2534 15.4214L32.6759 12.9993C34.9057 15.3018 36.3965 18.3233 36.7662 21.6821H33.2942V23.3327H36.856C36.854 26.9148 35.5833 30.1994 33.4673 32.7635L30.6444 29.9407L29.4772 31.1079L32.347 33.9776L32.3365 33.9877L33.4848 35.1735C36.5806 32.1758 38.5066 27.9739 38.5066 23.3238C38.5066 14.2122 31.1161 6.82646 22.0004 6.82646C12.8846 6.82646 5.49414 14.2122 5.49414 23.3238C5.49414 27.8506 7.31941 31.9528 10.2724 34.9327L11.4449 33.7708C11.4397 33.7656 11.4346 33.7605 11.4294 33.7552L13.9096 31.2749L12.7424 30.1077L10.3339 32.5163C8.33788 29.9898 7.1468 26.8008 7.14477 23.3327H10.4895V21.6821H7.23457Z" fill="white"/>
<path d="M19.9524 26.5591C19.6337 26.6203 19.3483 26.7957 19.1498 27.0524L17.7976 29.0573C17.647 30.0593 17.7538 30.458 18.3461 31.1046L20.5197 32.1647C20.8199 32.2878 21.1548 32.297 21.4614 32.1907L31.9557 27.3442C33.5168 26.8027 33.0987 25.1845 31.476 25.496L19.9524 26.5591Z" fill="white"/>
</svg>
