<svg width="23" height="22" viewBox="0 0 23 22" fill="none" xmlns="http://www.w3.org/2000/svg">
<path d="M19.7498 1.83333L17.9164 3.66667M17.9164 3.66667L20.6664 6.41667L17.4581 9.625L14.7081 6.875M17.9164 3.66667L14.7081 6.875M10.9406 10.6425C11.4139 11.1095 11.7902 11.6655 12.0477 12.2786C12.3052 12.8916 12.439 13.5495 12.4412 14.2144C12.4434 14.8793 12.3141 15.5381 12.0607 16.1529C11.8073 16.7676 11.4347 17.3261 10.9646 17.7963C10.4944 18.2665 9.93586 18.639 9.32112 18.8924C8.70639 19.1458 8.0476 19.2752 7.38268 19.2729C6.71776 19.2707 6.05984 19.137 5.44682 18.8794C4.8338 18.6219 4.27777 18.2456 3.81076 17.7723C2.89238 16.8215 2.38421 15.5479 2.3957 14.226C2.40719 12.9041 2.93741 11.6396 3.87218 10.7048C4.80694 9.77006 6.07146 9.23984 7.39337 9.22835C8.71527 9.21686 9.98881 9.72504 10.9397 10.6434L10.9406 10.6425ZM10.9406 10.6425L14.7081 6.875" stroke="#717171" stroke-width="2" stroke-linecap="round" stroke-linejoin="round"/>
</svg>
