<svg width="28" height="28" viewBox="0 0 28 28" fill="none" xmlns="http://www.w3.org/2000/svg">
<path d="M9.78512 11.7508C9.78512 11.7508 8.50048 11.6523 8.17124 11.3009C7.84201 10.9495 7.84201 10.3797 8.17124 10.0283C8.50048 9.67689 9.03433 9.67689 9.36356 10.0283C9.69284 10.3797 9.78512 11.7508 9.78512 11.7508Z" fill="black"/>
<path d="M7.0266 9.58024L7.8856 5.4192C7.8856 5.4192 4.64781 5.13708 5.14339 2.06922C5.14339 2.06922 9.33928 3.55028 10.5287 2.28078C10.5287 2.28078 13.1581 -0.717705 17.356 2.26148C18.7566 3.25553 22.7412 2.04992 22.7412 2.04992C23.2368 5.11778 19.999 5.3999 19.999 5.3999L20.858 9.56093" stroke="black" stroke-width="1.3" stroke-miterlimit="10" stroke-linecap="round" stroke-linejoin="round"/>
<path d="M10.7634 18.4732H17.393C17.5077 18.4732 17.6174 18.5244 17.6915 18.6178C18.0485 19.0674 19.017 20.5737 18.5744 23.2506C18.497 23.7187 18.0834 24.0343 17.6454 23.9482C16.1801 23.6599 12.8717 23.1431 10.5805 23.8013C10.1144 23.9352 9.65035 23.5971 9.59273 23.0855C9.46542 21.9555 9.45964 20.1032 10.4402 18.6454C10.514 18.5357 10.6369 18.4732 10.7634 18.4732Z" stroke="black" stroke-width="1.3" stroke-miterlimit="10" stroke-linecap="round" stroke-linejoin="round"/>
<path d="M11.3467 20.3975C11.3467 20.3975 11.0573 21.6821 12.6762 21.714" stroke="black" stroke-width="1.3" stroke-miterlimit="10" stroke-linecap="round" stroke-linejoin="round"/>
<path d="M11.0352 25.4321C11.0352 25.4321 13.7113 28.9937 16.8499 25.5731" stroke="black" stroke-width="1.3" stroke-miterlimit="10" stroke-linecap="round" stroke-linejoin="round"/>
<path d="M6.14108 6.84416C4.84935 5.96336 3.03039 4.78015 0.898927 5.34019C0.898927 5.34019 0.271191 11.6523 7.37446 12.3223L7.88593 12.7187C7.88593 12.7187 6.92032 16.7311 8.41785 19.9635" stroke="black" stroke-width="1.3" stroke-miterlimit="10" stroke-linecap="round" stroke-linejoin="round"/>
<path d="M18.1011 11.7304C18.1011 11.7304 19.3857 11.6318 19.715 11.2804C20.0442 10.929 20.0442 10.3592 19.715 10.0078C19.3857 9.65641 18.8519 9.65641 18.5226 10.0078C18.1934 10.3592 18.1011 11.7304 18.1011 11.7304Z" fill="black"/>
<path d="M16.9589 20.3782C16.9589 20.3782 17.2483 21.6628 15.6294 21.6948" stroke="black" stroke-width="1.3" stroke-miterlimit="10" stroke-linecap="round" stroke-linejoin="round"/>
<path d="M21.8462 6.75606C23.1308 5.90658 24.9101 4.77557 26.9858 5.32094C26.9858 5.32094 27.6135 11.633 20.5103 12.3031L19.9988 12.6994C19.9988 12.6994 21.0688 16.2887 19.5713 19.5211" stroke="black" stroke-width="1.3" stroke-miterlimit="10" stroke-linecap="round" stroke-linejoin="round"/>
</svg>
