<svg width="24" height="22" viewBox="0 0 24 22" fill="none" xmlns="http://www.w3.org/2000/svg">
<path d="M23 2V8H17" stroke="white" stroke-width="2" stroke-linecap="round" stroke-linejoin="round"/>
<path d="M1 18V12H7" stroke="white" stroke-width="2" stroke-linecap="round" stroke-linejoin="round"/>
<path d="M3.51 7C4.01717 5.56678 4.87913 4.2854 6.01547 3.27542C7.1518 2.26543 8.52547 1.55976 10.0083 1.22426C11.4911 0.88875 13.0348 0.93434 14.4952 1.35677C15.9556 1.77921 17.2853 2.56471 18.36 3.64L23 8M1 12L5.64 16.36C6.71475 17.4353 8.04437 18.2208 9.50481 18.6432C10.9652 19.0657 12.5089 19.1112 13.9917 18.7757C15.4745 18.4402 16.8482 17.7346 17.9845 16.7246C19.1209 15.7146 19.9828 14.4332 20.49 13" stroke="white" stroke-width="2" stroke-linecap="round" stroke-linejoin="round"/>
</svg>
