<svg width="24" height="23" viewBox="0 0 24 23" fill="none" xmlns="http://www.w3.org/2000/svg">
<g clip-path="url(#clip0_80_321)">
<path d="M12 14.375C13.6569 14.375 15 13.0878 15 11.5C15 9.91218 13.6569 8.625 12 8.625C10.3431 8.625 9 9.91218 9 11.5C9 13.0878 10.3431 14.375 12 14.375Z" stroke="#282FD9" stroke-width="2" stroke-linecap="round" stroke-linejoin="round"/>
<path d="M19.4 14.375C19.2669 14.6641 19.2272 14.9847 19.286 15.2956C19.3448 15.6065 19.4995 15.8933 19.73 16.1192L19.79 16.1767C19.976 16.3547 20.1235 16.5661 20.2241 16.7988C20.3248 17.0315 20.3766 17.2809 20.3766 17.5327C20.3766 17.7846 20.3248 18.034 20.2241 18.2667C20.1235 18.4994 19.976 18.7108 19.79 18.8888C19.6043 19.067 19.3837 19.2084 19.1409 19.3048C18.8981 19.4013 18.6378 19.4509 18.375 19.4509C18.1122 19.4509 17.8519 19.4013 17.6091 19.3048C17.3663 19.2084 17.1457 19.067 16.96 18.8888L16.9 18.8313C16.6643 18.6104 16.365 18.4622 16.0406 18.4058C15.7162 18.3494 15.3816 18.3875 15.08 18.515C14.7842 18.6365 14.532 18.8382 14.3543 19.0953C14.1766 19.3525 14.0813 19.6537 14.08 19.9621V20.125C14.08 20.6334 13.8693 21.1209 13.4942 21.4803C13.1191 21.8398 12.6104 22.0417 12.08 22.0417C11.5496 22.0417 11.0409 21.8398 10.6658 21.4803C10.2907 21.1209 10.08 20.6334 10.08 20.125V20.0388C10.0723 19.7216 9.96512 19.414 9.77251 19.1559C9.5799 18.8978 9.31074 18.7012 9 18.5917C8.69838 18.4641 8.36381 18.4261 8.03941 18.4825C7.71502 18.5388 7.41568 18.687 7.18 18.908L7.12 18.9655C6.93425 19.1437 6.71368 19.285 6.47088 19.3815C6.22808 19.4779 5.96783 19.5276 5.705 19.5276C5.44217 19.5276 5.18192 19.4779 4.93912 19.3815C4.69632 19.285 4.47575 19.1437 4.29 18.9655C4.10405 18.7875 3.95653 18.5761 3.85588 18.3434C3.75523 18.1107 3.70343 17.8613 3.70343 17.6094C3.70343 17.3575 3.75523 17.1081 3.85588 16.8754C3.95653 16.6428 4.10405 16.4314 4.29 16.2534L4.35 16.1959C4.58054 15.97 4.73519 15.6832 4.794 15.3723C4.85282 15.0614 4.81312 14.7408 4.68 14.4517C4.55324 14.1683 4.34276 13.9265 4.07447 13.7563C3.80618 13.586 3.49179 13.4946 3.17 13.4934H3C2.46957 13.4934 1.96086 13.2914 1.58579 12.932C1.21071 12.5726 1 12.085 1 11.5767C1 11.0684 1.21071 10.5809 1.58579 10.2214C1.96086 9.86198 2.46957 9.66004 3 9.66004H3.09C3.42099 9.65262 3.742 9.54995 4.0113 9.36536C4.28059 9.18078 4.48572 8.92283 4.6 8.62504C4.73312 8.33599 4.77282 8.01536 4.714 7.70448C4.65519 7.3936 4.50054 7.10673 4.27 6.88087L4.21 6.82337C4.02405 6.64537 3.87653 6.43398 3.77588 6.2013C3.67523 5.96862 3.62343 5.71921 3.62343 5.46733C3.62343 5.21545 3.67523 4.96604 3.77588 4.73336C3.87653 4.50068 4.02405 4.2893 4.21 4.11129C4.39575 3.93309 4.61632 3.79171 4.85912 3.69526C5.10192 3.5988 5.36217 3.54916 5.625 3.54916C5.88783 3.54916 6.14808 3.5988 6.39088 3.69526C6.63368 3.79171 6.85425 3.93309 7.04 4.11129L7.1 4.16879C7.33568 4.38972 7.63502 4.53793 7.95941 4.5943C8.28381 4.65066 8.61838 4.61261 8.92 4.48504H9C9.29577 4.36356 9.54802 4.16185 9.72569 3.90474C9.90337 3.64763 9.99872 3.34634 10 3.03796V2.87504C10 2.36671 10.2107 1.8792 10.5858 1.51975C10.9609 1.16031 11.4696 0.958374 12 0.958374C12.5304 0.958374 13.0391 1.16031 13.4142 1.51975C13.7893 1.8792 14 2.36671 14 2.87504V2.96129C14.0013 3.26967 14.0966 3.57096 14.2743 3.82807C14.452 4.08518 14.7042 4.28689 15 4.40837C15.3016 4.53594 15.6362 4.574 15.9606 4.51763C16.285 4.46126 16.5843 4.31306 16.82 4.09212L16.88 4.03462C17.0657 3.85642 17.2863 3.71505 17.5291 3.61859C17.7719 3.52214 18.0322 3.47249 18.295 3.47249C18.5578 3.47249 18.8181 3.52214 19.0609 3.61859C19.3037 3.71505 19.5243 3.85642 19.71 4.03462C19.896 4.21263 20.0435 4.42402 20.1441 4.6567C20.2448 4.88938 20.2966 5.13879 20.2966 5.39067C20.2966 5.64255 20.2448 5.89196 20.1441 6.12463C20.0435 6.35731 19.896 6.5687 19.71 6.74671L19.65 6.80421C19.4195 7.03007 19.2648 7.31693 19.206 7.62781C19.1472 7.93869 19.1869 8.25933 19.32 8.54837V8.62504C19.4468 8.90849 19.6572 9.15022 19.9255 9.3205C20.1938 9.49077 20.5082 9.58214 20.83 9.58337H21C21.5304 9.58337 22.0391 9.78531 22.4142 10.1448C22.7893 10.5042 23 10.9917 23 11.5C23 12.0084 22.7893 12.4959 22.4142 12.8553C22.0391 13.2148 21.5304 13.4167 21 13.4167H20.91C20.5882 13.4179 20.2738 13.5093 20.0055 13.6796C19.7372 13.8499 19.5268 14.0916 19.4 14.375Z" stroke="#282FD9" stroke-width="2" stroke-linecap="round" stroke-linejoin="round"/>
</g>
<defs>
<clipPath id="clip0_80_321">
<rect width="24" height="23" fill="white"/>
</clipPath>
</defs>
</svg>
