<svg width="58" height="63" viewBox="0 0 58 63" fill="none" xmlns="http://www.w3.org/2000/svg">
<path d="M31.9572 63C25.799 63 20.3085 61.6922 15.4858 59.0764C10.7372 56.386 6.99036 52.724 4.24512 48.0905C1.57407 43.3822 0.238525 38.0013 0.238525 31.9478C0.238525 25.8195 1.49987 20.4386 4.02252 15.8051C6.61937 11.0968 10.1808 7.43482 14.7067 4.81911C19.2326 2.12867 24.4263 0.783447 30.2878 0.783447C36.0751 0.783447 41.0462 2.0913 45.2012 4.70701C49.3561 7.24799 52.5094 10.7979 54.6611 15.3567C56.887 19.8408 57.9999 25.0348 57.9999 30.9389C57.9999 32.3588 57.5177 33.5546 56.5531 34.5261C55.5886 35.4229 54.3643 35.8713 52.8804 35.8713H8.02908V26.9032H52.5466L47.9835 30.042C47.9093 26.3053 47.1674 22.9796 45.7576 20.065C44.3479 17.0756 42.3446 14.7214 39.7478 13.0026C37.1509 11.2837 33.9976 10.4242 30.2878 10.4242C26.0587 10.4242 22.4231 11.3584 19.381 13.2268C16.4132 15.0951 14.1502 17.6735 12.5921 20.9618C11.034 24.1754 10.255 27.8374 10.255 31.9478C10.255 36.0582 11.1824 39.7202 13.0373 42.9338C14.8922 46.1474 17.452 48.6883 20.7166 50.5567C23.9812 52.4251 27.7281 53.3592 31.9572 53.3592C34.2573 53.3592 36.5945 52.9482 38.9687 52.1261C41.4172 51.2293 43.3834 50.2204 44.8673 49.0994C45.9802 48.2773 47.1674 47.8662 48.4287 47.8662C49.7642 47.7915 50.9142 48.1652 51.8788 48.9873C53.1401 50.1083 53.8079 51.3414 53.8821 52.6866C53.9563 54.0319 53.3627 55.1902 52.1014 56.1618C49.5787 58.1796 46.4254 59.8238 42.6414 61.0943C38.9316 62.3648 35.3702 63 31.9572 63Z" fill="#0009E1"/>
</svg>
