<svg width="22" height="23" viewBox="0 0 22 23" fill="none" xmlns="http://www.w3.org/2000/svg">
<path d="M19.2498 2.33337L17.4164 4.16671M17.4164 4.16671L20.1664 6.91671L16.9581 10.125L14.2081 7.37504M17.4164 4.16671L14.2081 7.37504M10.4406 11.1425C10.9139 11.6096 11.2902 12.1656 11.5477 12.7786C11.8052 13.3916 11.939 14.0495 11.9412 14.7145C11.9434 15.3794 11.8141 16.0382 11.5607 16.6529C11.3073 17.2676 10.9347 17.8262 10.4646 18.2963C9.99439 18.7665 9.43586 19.139 8.82112 19.3925C8.20639 19.6459 7.5476 19.7752 6.88268 19.773C6.21776 19.7708 5.55984 19.637 4.94682 19.3795C4.3338 19.1219 3.77777 18.7457 3.31076 18.2724C2.39238 17.3215 1.88421 16.048 1.8957 14.7261C1.90719 13.4042 2.43741 12.1396 3.37218 11.2049C4.30694 10.2701 5.57146 9.73988 6.89337 9.72839C8.21527 9.71691 9.48881 10.2251 10.4397 11.1435L10.4406 11.1425ZM10.4406 11.1425L14.2081 7.37504" stroke="#171A21" stroke-width="2" stroke-linecap="round" stroke-linejoin="round"/>
</svg>
