<svg width="62" height="63" viewBox="0 0 62 63" fill="none" xmlns="http://www.w3.org/2000/svg">
<path d="M30.8543 63C24.8444 63 19.5394 61.6922 14.9393 59.0764C10.3391 56.386 6.70353 52.724 4.03249 48.0905C1.43563 43.3822 0.137207 38.0013 0.137207 31.9478C0.137207 25.8195 1.43563 20.4387 4.03249 15.8051C6.70353 11.0968 10.3391 7.43482 14.9393 4.81911C19.5394 2.12867 24.8444 0.783447 30.8543 0.783447C36.7899 0.783447 42.0578 2.12867 46.658 4.81911C51.2581 7.43482 54.8566 11.0968 57.4534 15.8051C60.1245 20.4387 61.46 25.8195 61.46 31.9478C61.46 38.0013 60.1616 43.3822 57.5647 48.0905C54.9679 52.724 51.3694 56.386 46.7693 59.0764C42.1691 61.6922 36.8641 63 30.8543 63ZM30.8543 52.9108C34.7124 52.9108 38.1254 52.014 41.0933 50.2204C44.0611 48.4268 46.3612 45.9605 47.9935 42.8217C49.7 39.6828 50.5532 36.0582 50.5532 31.9478C50.5532 27.8374 49.7 24.2127 47.9935 21.0739C46.3612 17.8603 44.0611 15.3567 41.0933 13.5631C38.1254 11.7694 34.7124 10.8726 30.8543 10.8726C26.9961 10.8726 23.5831 11.7694 20.6152 13.5631C17.6474 15.3567 15.3102 17.8603 13.6037 21.0739C11.8972 24.2127 11.044 27.8374 11.044 31.9478C11.044 36.0582 11.8972 39.6828 13.6037 42.8217C15.3102 45.9605 17.6474 48.4268 20.6152 50.2204C23.5831 52.014 26.9961 52.9108 30.8543 52.9108Z" fill="#0009E1"/>
</svg>
